<svg width="24" height="24" viewBox="0 0 20 20" fill="none" xmlns="http://www.w3.org/2000/svg">
  <path fill-rule="evenodd" clip-rule="evenodd" d="M10.8337 10.8334C10.8337 11.2934 10.4603 11.6667 10.0003 11.6667C9.54033 11.6667 9.16699 11.2934 9.16699 10.8334V6.66669C9.16699 6.20669 9.54033 5.83335 10.0003 5.83335C10.4603 5.83335 10.8337 6.20669 10.8337 6.66669V10.8334ZM10.0003 14.1667C9.54033 14.1667 9.16699 13.7934 9.16699 13.3334C9.16699 12.8734 9.54033 12.5 10.0003 12.5C10.4603 12.5 10.8337 12.8734 10.8337 13.3334C10.8337 13.7934 10.4603 14.1667 10.0003 14.1667ZM10.0003 1.66669C5.39783 1.66669 1.66699 5.39752 1.66699 10C1.66699 14.6025 5.39783 18.3334 10.0003 18.3334C14.6028 18.3334 18.3337 14.6025 18.3337 10C18.3337 5.39752 14.6028 1.66669 10.0003 1.66669Z" fill="#231F20"/>
  <mask id="mask0" mask-type="alpha" maskUnits="userSpaceOnUse" x="1" y="1" width="18" height="18">
    <path fill-rule="evenodd" clip-rule="evenodd" d="M10.8337 10.8334C10.8337 11.2934 10.4603 11.6667 10.0003 11.6667C9.54033 11.6667 9.16699 11.2934 9.16699 10.8334V6.66669C9.16699 6.20669 9.54033 5.83335 10.0003 5.83335C10.4603 5.83335 10.8337 6.20669 10.8337 6.66669V10.8334ZM10.0003 14.1667C9.54033 14.1667 9.16699 13.7934 9.16699 13.3334C9.16699 12.8734 9.54033 12.5 10.0003 12.5C10.4603 12.5 10.8337 12.8734 10.8337 13.3334C10.8337 13.7934 10.4603 14.1667 10.0003 14.1667ZM10.0003 1.66669C5.39783 1.66669 1.66699 5.39752 1.66699 10C1.66699 14.6025 5.39783 18.3334 10.0003 18.3334C14.6028 18.3334 18.3337 14.6025 18.3337 10C18.3337 5.39752 14.6028 1.66669 10.0003 1.66669Z" fill="white"/>
  </mask>
  <g mask="url(#mask0)">
    <rect width="20" height="20" fill="#FF364E"/>
  </g>
</svg>
