<svg width="24" height="24" viewBox="0 0 20 20" fill="none" xmlns="http://www.w3.org/2000/svg">
  <path d="M17.5003 10C17.2793 10 17.0674 10.0878 16.9111 10.2441C16.7548 10.4004 16.667 10.6124 16.667 10.8334V15.8334C16.667 16.0544 16.5792 16.2663 16.4229 16.4226C16.2666 16.5789 16.0547 16.6667 15.8337 16.6667H4.16699C3.94598 16.6667 3.73402 16.5789 3.57774 16.4226C3.42146 16.2663 3.33366 16.0544 3.33366 15.8334V4.1667C3.33366 3.94568 3.42146 3.73372 3.57774 3.57744C3.73402 3.42116 3.94598 3.33336 4.16699 3.33336H9.16699C9.38801 3.33336 9.59997 3.24557 9.75625 3.08929C9.91253 2.93301 10.0003 2.72104 10.0003 2.50003C10.0003 2.27902 9.91253 2.06706 9.75625 1.91077C9.59997 1.75449 9.38801 1.6667 9.16699 1.6667H4.16699C3.50395 1.6667 2.86807 1.93009 2.39923 2.39893C1.93038 2.86777 1.66699 3.50366 1.66699 4.1667V15.8334C1.66699 16.4964 1.93038 17.1323 2.39923 17.6011C2.86807 18.07 3.50395 18.3334 4.16699 18.3334H15.8337C16.4967 18.3334 17.1326 18.07 17.6014 17.6011C18.0703 17.1323 18.3337 16.4964 18.3337 15.8334V10.8334C18.3337 10.6124 18.2459 10.4004 18.0896 10.2441C17.9333 10.0878 17.7213 10 17.5003 10ZM5.00033 10.6334V14.1667C5.00033 14.3877 5.08812 14.5997 5.2444 14.756C5.40068 14.9122 5.61265 15 5.83366 15H9.36699C9.47666 15.0007 9.58538 14.9796 9.68691 14.9382C9.78845 14.8967 9.88079 14.8356 9.95866 14.7584L15.7253 8.98336L18.092 6.6667C18.1701 6.58923 18.2321 6.49706 18.2744 6.39551C18.3167 6.29396 18.3385 6.18504 18.3385 6.07503C18.3385 5.96502 18.3167 5.8561 18.2744 5.75455C18.2321 5.653 18.1701 5.56083 18.092 5.48336L14.5587 1.90836C14.4812 1.83026 14.389 1.76826 14.2875 1.72595C14.1859 1.68365 14.077 1.66187 13.967 1.66187C13.857 1.66187 13.7481 1.68365 13.6465 1.72595C13.545 1.76826 13.4528 1.83026 13.3753 1.90836L11.0253 4.2667L5.24199 10.0417C5.16476 10.1196 5.10365 10.2119 5.06218 10.3134C5.02071 10.415 4.99969 10.5237 5.00033 10.6334ZM13.967 3.67503L16.3253 6.03336L15.142 7.2167L12.7837 4.85836L13.967 3.67503ZM6.66699 10.975L11.6087 6.03336L13.967 8.3917L9.02533 13.3334H6.66699V10.975Z" fill="#92929D"/>
</svg>
