<svg width="40" height="40" viewBox="0 0 40 40" fill="none" xmlns="http://www.w3.org/2000/svg">
  <path d="M14.9997 18.3333C18.6816 18.3333 21.6663 15.3486 21.6663 11.6667C21.6663 7.98477 18.6816 5 14.9997 5C11.3178 5 8.33301 7.98477 8.33301 11.6667C8.33301 15.3486 11.3178 18.3333 14.9997 18.3333Z" stroke="white" stroke-width="2.5" stroke-linecap="round" stroke-linejoin="round"/>
  <path d="M5 35V31.6667C5 29.8986 5.70238 28.2029 6.95262 26.9526C8.20286 25.7024 9.89856 25 11.6667 25H18.3333C20.1014 25 21.7971 25.7024 23.0474 26.9526C24.2976 28.2029 25 29.8986 25 31.6667V35" stroke="white" stroke-width="2.5" stroke-linecap="round" stroke-linejoin="round"/>
  <path d="M26.667 18.3333L30.0003 21.6667L36.667 15" stroke="white" stroke-width="2.5" stroke-linecap="round" stroke-linejoin="round"/>
</svg>
