<svg width="24" height="24" viewBox="0 0 20 20" fill="none" xmlns="http://www.w3.org/2000/svg">
  <path d="M10 17.5C14.1421 17.5 17.5 14.1421 17.5 10C17.5 5.85786 14.1421 2.5 10 2.5C5.85786 2.5 2.5 5.85786 2.5 10C2.5 14.1421 5.85786 17.5 10 17.5Z" stroke="#92929D" stroke-width="1.66667" stroke-linecap="round" stroke-linejoin="round"/>
  <path d="M12.3333 7.49999C12.1824 7.23812 11.963 7.02224 11.6988 6.87545C11.4346 6.72866 11.1354 6.65648 10.8333 6.66665H9.16667C8.72464 6.66665 8.30072 6.84225 7.98816 7.15481C7.6756 7.46737 7.5 7.89129 7.5 8.33332C7.5 8.77535 7.6756 9.19927 7.98816 9.51183C8.30072 9.82439 8.72464 9.99999 9.16667 9.99999H10.8333C11.2754 9.99999 11.6993 10.1756 12.0118 10.4881C12.3244 10.8007 12.5 11.2246 12.5 11.6667C12.5 12.1087 12.3244 12.5326 12.0118 12.8452C11.6993 13.1577 11.2754 13.3333 10.8333 13.3333H9.16667C8.86458 13.3435 8.56541 13.2713 8.30118 13.1245C8.03696 12.9777 7.81763 12.7619 7.66667 12.5" stroke="#92929D" stroke-width="1.66667" stroke-linecap="round" stroke-linejoin="round"/>
  <path d="M10 13.3333V15M10 5V6.66667V5Z" stroke="#92929D" stroke-width="1.66667" stroke-linecap="round" stroke-linejoin="round"/>
</svg>
