<svg width="24" height="24" viewBox="0 0 20 20" fill="none" xmlns="http://www.w3.org/2000/svg">
  <path d="M11.9087 8.99173L9.16699 11.7417L8.09199 10.6584C7.93507 10.5015 7.72224 10.4133 7.50033 10.4133C7.27841 10.4133 7.06558 10.5015 6.90866 10.6584C6.75174 10.8153 6.66358 11.0281 6.66358 11.2501C6.66358 11.472 6.75174 11.6848 6.90866 11.8417L8.57533 13.5084C8.6528 13.5865 8.74496 13.6485 8.84651 13.6908C8.94806 13.7331 9.05698 13.7549 9.16699 13.7549C9.277 13.7549 9.38592 13.7331 9.48747 13.6908C9.58902 13.6485 9.68119 13.5865 9.75866 13.5084L13.092 10.1751C13.2489 10.0181 13.3371 9.80531 13.3371 9.58339C13.3371 9.36147 13.2489 9.14865 13.092 8.99173C12.9351 8.83481 12.7222 8.74665 12.5003 8.74665C12.2784 8.74665 12.0656 8.83481 11.9087 8.99173ZM15.8337 4.58339H10.6003L10.3337 3.75006C10.1608 3.26108 9.84012 2.83798 9.41608 2.53936C8.99204 2.24074 8.48562 2.08139 7.96699 2.08339H4.16699C3.50395 2.08339 2.86807 2.34678 2.39923 2.81563C1.93038 3.28447 1.66699 3.92035 1.66699 4.58339V15.4167C1.66699 16.0798 1.93038 16.7157 2.39923 17.1845C2.86807 17.6533 3.50395 17.9167 4.16699 17.9167H15.8337C16.4967 17.9167 17.1326 17.6533 17.6014 17.1845C18.0703 16.7157 18.3337 16.0798 18.3337 15.4167V7.08339C18.3337 6.42035 18.0703 5.78447 17.6014 5.31563C17.1326 4.84679 16.4967 4.58339 15.8337 4.58339ZM16.667 15.4167C16.667 15.6377 16.5792 15.8497 16.4229 16.006C16.2666 16.1623 16.0547 16.2501 15.8337 16.2501H4.16699C3.94598 16.2501 3.73402 16.1623 3.57774 16.006C3.42146 15.8497 3.33366 15.6377 3.33366 15.4167V4.58339C3.33366 4.36238 3.42146 4.15042 3.57774 3.99414C3.73402 3.83786 3.94598 3.75006 4.16699 3.75006H7.96699C8.1417 3.74961 8.31212 3.80408 8.45418 3.90576C8.59625 4.00745 8.70276 4.15121 8.75866 4.31673L9.20866 5.68339C9.26456 5.84891 9.37108 5.99267 9.51314 6.09436C9.6552 6.19604 9.82562 6.25051 10.0003 6.25006H15.8337C16.0547 6.25006 16.2666 6.33786 16.4229 6.49414C16.5792 6.65042 16.667 6.86238 16.667 7.08339V15.4167Z" fill="#92929D"/>
</svg>
