<svg width="230" height="122" viewBox="0 0 230 122" fill="none" xmlns="http://www.w3.org/2000/svg">
  <g clip-path="url(#clip0)">
    <path d="M35.7748 120.823C35.7748 120.823 10.7074 125.423 2.73064 108.014C-7.62366 85.4189 13.6449 68.2852 29.9602 71.481C65.5026 78.4327 56.94 1.70576 113.983 17.3664C130.023 21.7683 173.361 -4.3845 185.447 37.5496C188.324 47.5249 198.506 48.6189 213.288 54.9503C242.215 67.3376 228.992 121.03 208.318 121.237C187.644 121.444 35.7748 120.823 35.7748 120.823Z" fill="#EBF2F9"/>
    <path d="M160.073 121.121H174.838V66.11H160.073V121.121Z" fill="#82B479"/>
    <path d="M153.184 121.121H164.029V66.11H153.184V121.121Z" fill="#A8D29F"/>
    <path d="M158.786 117.713C160.123 117.713 161.206 116.629 161.206 115.292C161.206 113.955 160.123 112.872 158.786 112.872C157.449 112.872 156.365 113.955 156.365 115.292C156.365 116.629 157.449 117.713 158.786 117.713Z" fill="#82B479"/>
    <path d="M181.727 121.121H196.492V66.11H181.727V121.121Z" fill="#699DEE"/>
    <path d="M174.837 121.121H185.683V66.11H174.837V121.121Z" fill="#AFCDFB"/>
    <path d="M180.441 117.713C181.778 117.713 182.862 116.629 182.862 115.292C182.862 113.955 181.778 112.872 180.441 112.872C179.104 112.872 178.021 113.955 178.021 115.292C178.021 116.629 179.104 117.713 180.441 117.713Z" fill="#699DEE"/>
    <path d="M182.862 71.7134H178.021V100.588H182.862V71.7134Z" fill="white"/>
    <path d="M203.132 121.121H217.896V66.11H203.132V121.121Z" fill="#D86713"/>
    <path d="M196.243 121.121H207.088V66.11H196.243V121.121Z" fill="#F1A34F"/>
    <path d="M201.847 117.713C203.184 117.713 204.268 116.629 204.268 115.292C204.268 113.955 203.184 112.872 201.847 112.872C200.51 112.872 199.427 113.955 199.427 115.292C199.427 116.629 200.51 117.713 201.847 117.713Z" fill="#D86713"/>
    <path d="M204.268 71.7134H199.427V100.588H204.268V71.7134Z" fill="white"/>
    <path d="M161.026 72.084H156.185V100.959H161.026V72.084Z" fill="white"/>
    <path d="M124.639 55.4499L129.842 117.334C129.842 117.334 130.385 121.082 127.594 121.09C123.002 121.099 104.757 121.09 104.757 121.09C104.757 121.09 108.212 120.306 108.169 118.549C108.117 116.482 102.087 54.8555 102.087 54.8555L124.639 55.4499Z" fill="#D86713"/>
    <path d="M103.285 119.979C104.19 119.979 121.616 120.039 126.087 119.979C128.034 119.953 128.378 118.248 128.396 117.145C128.404 116.62 128.335 116.223 128.335 116.223L128.197 114.612L127.853 110.512L127.551 106.894L127.164 102.242L126.836 98.3143L123.141 54.3387L100.589 53.7529C100.589 53.7529 103.13 79.5439 104.93 98.3143C105.129 100.408 105.318 102.415 105.499 104.284C105.559 104.878 105.611 105.464 105.663 106.033C105.826 107.807 105.981 109.444 106.111 110.882C106.18 111.64 106.248 112.347 106.3 112.993C106.533 115.526 106.662 117.145 106.662 117.446C106.662 117.627 106.645 117.791 106.619 117.946C106.24 119.91 103.621 119.979 103.285 119.979Z" fill="#EE9849"/>
    <path d="M71.1451 21.7769H179.4L166.72 72.7041L164.989 79.673L159.079 103.397H49.377L71.1451 21.7769Z" fill="#F1A34F"/>
    <path d="M179.4 21.7769L181.157 22.3626L161.414 105.171L159.079 103.397L179.4 21.7769Z" fill="#EE9849"/>
    <path d="M161.414 105.172H52.3919L49.377 103.397H159.079L161.414 105.172Z" fill="#D86713"/>
    <path d="M123.124 120.005H99.5205V121.125H123.124V120.005Z" fill="#F1A34F"/>
    <path d="M105.524 105.171L105.645 106.024L127.844 110.512L127.542 106.886L127.396 105.171H105.524Z" fill="#D86713"/>
    <path opacity="0.4" d="M103.285 119.979C104.19 119.979 121.616 120.04 126.087 119.979C128.034 119.953 128.378 118.248 128.396 117.145L106.3 112.984C106.533 115.517 106.662 117.137 106.662 117.438C106.662 117.619 106.645 117.783 106.619 117.938C106.24 119.91 103.621 119.979 103.285 119.979Z" fill="#D86713"/>
    <path opacity="0.4" d="M112.312 87.3659L159.079 103.397L163.076 87.3486L112.312 87.3659Z" fill="#D86713"/>
    <path d="M71.1455 21.7769H179.401L163.085 87.3484L53.5811 87.3742L71.1455 21.7769Z" fill="#F1A34F"/>
    <path d="M101.32 95.6611C101.63 94.0503 103.189 92.7495 104.8 92.7495C106.411 92.7495 107.462 94.0503 107.143 95.6611C106.833 97.272 105.274 98.5727 103.663 98.5727C102.061 98.5814 101.01 97.272 101.32 95.6611Z" fill="#D86713"/>
    <path d="M58.6807 84.5317H160.044L171.527 38.7986L172.406 35.2926L173.155 32.3035L174.913 25.2915H75.0132L73.0837 32.3035L72.2567 35.2926L71.2919 38.7986L58.6807 84.5317Z" fill="#E9F3FE"/>
    <path d="M75.0126 25.2915H174.912L173.155 32.3035H73.083L75.0126 25.2915Z" fill="#A8D29F"/>
    <path d="M170.123 27.583C170.606 27.583 170.898 27.9793 170.778 28.4617C170.657 28.9441 170.166 29.3403 169.684 29.3403C169.201 29.3403 168.908 28.9441 169.029 28.4617C169.15 27.9793 169.641 27.583 170.123 27.583Z" fill="#E9F3FE"/>
    <path d="M167.211 27.583C167.693 27.583 167.986 27.9793 167.866 28.4617C167.745 28.9441 167.254 29.3403 166.772 29.3403C166.289 29.3403 165.996 28.9441 166.117 28.4617C166.238 27.9793 166.729 27.583 167.211 27.583Z" fill="#E9F3FE"/>
    <path d="M162.981 28.4617C163.102 27.9793 163.593 27.583 164.075 27.583C164.558 27.583 164.851 27.9793 164.73 28.4617C164.609 28.9441 164.118 29.3403 163.636 29.3403C163.154 29.3403 162.861 28.9441 162.981 28.4617Z" fill="#E9F3FE"/>
    <path d="M22.0959 114.819C22.0959 114.819 20.8037 116.016 21.0535 116.861C21.3034 117.713 22.4663 118.273 22.63 119.316C22.785 120.358 23.4139 120.918 23.9824 120.918C24.5509 120.918 26.6873 120.918 26.6873 120.918C26.6873 120.918 27.1008 120.186 26.0929 119.97C25.085 119.746 24.706 118.532 24.7663 117.395C24.8266 116.258 24.6715 114.75 24.6715 114.75L22.5352 114.25L22.0959 114.819Z" fill="#233862"/>
    <path d="M45.484 120.918H38.3083C38.248 120.901 38.1963 120.892 38.1705 120.875C37.6967 120.634 37.8431 118.807 37.9034 118.239C37.9121 118.135 37.9207 118.075 37.9207 118.075C37.9207 118.075 40.436 116.059 40.7806 117.601C40.7892 117.653 40.8065 117.696 40.8151 117.739C41.2544 119.178 43.2012 119.841 44.3297 120.022C45.1997 120.168 45.4237 120.668 45.484 120.918Z" fill="#233862"/>
    <path d="M44.0449 79.6298C44.0449 79.6298 43.6659 84.4021 43.2094 90.1392C42.5977 97.9265 41.8655 107.497 41.788 109.314C41.6588 112.459 41.1592 117.498 41.1592 117.498C41.1592 117.498 39.9618 118.695 37.5756 118.187C37.5756 118.187 35.4479 111.003 34.8363 103.397C34.8277 103.276 34.8191 103.147 34.8105 103.017C34.2419 95.2733 33.3633 78.9751 33.3633 78.9751L44.0449 79.6298Z" fill="#699DEE"/>
    <path d="M44.0449 79.6298C44.0449 79.6298 43.6659 84.402 43.2094 90.1391L34.8363 103.396C34.8277 103.276 34.8191 103.147 34.8105 103.017C34.2419 95.2732 33.3633 78.9751 33.3633 78.9751L44.0449 79.6298Z" fill="#4A75CB"/>
    <path d="M42.2961 80.1984C42.2961 80.1984 35.4047 97.4785 30.8736 105.593C26.3425 113.716 24.9298 115.982 24.9298 115.982C24.9298 115.982 22.3369 114.94 22.0957 114.233C22.0957 114.233 23.8272 98.5553 26.8594 94.7392C28.5736 92.5771 30.5893 86.0992 30.6841 83.8336C30.7788 81.5681 31.2957 77.0801 31.2957 77.0801L42.2961 80.1984Z" fill="#699DEE"/>
    <path d="M49.2652 75.4258L49.6614 76.2097C49.6614 76.2097 51.6686 76.4854 51.1172 78.5787C51.1172 78.5787 50.8244 79.4402 50.2644 79.1645C49.7131 78.8888 49.9801 78.9147 49.1962 78.5529C48.4037 78.1911 47.9472 77.4847 48.1194 76.8386L47.9902 76.158L49.2652 75.4258Z" fill="#FFB27D"/>
    <path d="M38.7645 53.529C39.0747 51.72 39.0833 50.6432 39.0833 50.6432L35.5773 47.835C35.7065 51.7114 33.2256 53.5721 33.2256 53.5721C33.2256 53.5721 37.8859 55.8634 40.5821 55.0192C40.5821 55.0106 39.9188 54.1664 38.7645 53.529Z" fill="#FFB27D"/>
    <path d="M39.9018 50.5828C39.9018 50.5828 35.4569 51.3237 35.0348 48.5413C34.6213 45.7675 33.7599 43.993 36.5854 43.3986C39.4108 42.8129 40.1172 43.7863 40.4876 44.6821C40.8494 45.578 41.0475 50.3244 39.9018 50.5828Z" fill="#FFB27D"/>
    <path d="M35.0601 48.7393C35.0601 48.7393 35.1463 45.0179 39.2036 44.4236C41.9774 44.0187 40.2976 41.6929 39.9789 41.3311C39.9789 41.3311 37.8598 41.7359 35.6804 42.2097C31.132 43.209 34.5777 48.188 35.0601 48.7393Z" fill="#163560"/>
    <path d="M48.8002 76.5199C49.3946 75.9082 49.8339 75.1157 49.8339 75.1157C49.8339 75.1157 44.7773 68.836 44.3725 68.1813C43.959 67.5266 40.8923 57.0862 40.8923 57.0862L33.1309 55.5098C33.1309 55.5098 39.6088 68.879 40.6856 70.5071C42.4601 73.2034 47.7665 77.209 47.7665 77.209C47.7665 77.209 48.335 77.0023 48.8002 76.5199Z" fill="#82B479"/>
    <path d="M44.3375 80.0351C44.26 80.104 44.1652 80.1471 44.0532 80.1471C43.0454 80.1299 40.0907 80.6984 37.6012 80.44C35.4993 80.2419 33.6386 79.613 31.6401 78.7171C31.3731 78.5965 30.7614 78.2692 30.7787 77.9763C30.7873 77.649 30.8218 77.1838 30.8562 76.5894C30.994 74.522 31.2438 70.973 31.0026 66.8812C30.9596 66.1145 30.9337 65.3651 30.9337 64.6157C30.9165 59.0681 31.9933 54.158 34.2072 52.5041C34.3967 52.3662 35.5768 52.9606 36.6364 53.4861C37.6184 53.9685 38.3075 53.9599 39.2379 53.7704L40.4611 54.6576C41.5982 55.7086 42.8386 57.1385 43.3727 59.3093C43.8293 61.1527 44.1049 64.4864 44.2514 67.9408C44.3203 69.5085 44.372 71.0849 44.3892 72.5838V72.6355C44.4064 72.7819 44.4064 72.9456 44.4064 73.0921C44.4581 76.9254 44.4064 79.9748 44.3375 80.0351Z" fill="#A8D29F"/>
    <path d="M30.8564 76.5805C30.9943 74.5131 31.2441 70.964 31.0029 66.8723C30.9598 66.1056 30.934 65.3562 30.934 64.6067C31.8557 62.3756 32.6051 60.7476 32.6051 60.7476H34.931C34.931 60.7476 36.628 72.3768 30.8564 76.5805Z" fill="#82B479"/>
    <path d="M26.3337 77.3044L25.8944 78.0625C25.8944 78.0625 26.7558 79.8887 24.7056 80.5778C24.7056 80.5778 23.827 80.8018 23.7494 80.1902C23.6719 79.5786 23.8011 79.8197 23.6719 78.9583C23.5427 78.0969 23.8786 77.3302 24.5161 77.1235L25.0157 76.6411L26.3337 77.3044Z" fill="#FFB27D"/>
    <path d="M25.1623 77.5111C25.9979 77.6748 26.9024 77.6058 26.9024 77.6058C26.9024 77.6058 29.3833 69.9392 29.702 69.2328C30.0207 68.5351 37.0758 60.2395 37.0758 60.2395L34.1469 52.8916C34.1469 52.8916 26.5147 65.6407 25.7394 67.4324C24.4559 70.3957 24.0166 77.0287 24.0166 77.0287C24.0166 77.0287 24.5076 77.3819 25.1623 77.5111Z" fill="#A8D29F"/>
    <path d="M114.25 74.1942H66.9238L83.1014 8.75195H130.419L114.25 74.1942Z" fill="#AFCDFB"/>
    <path d="M107.178 70.1113H59.8604L76.0378 4.66895H123.356L107.178 70.1113Z" fill="#C0D8F9"/>
    <path d="M99.5201 65.4424H52.2021L68.3711 0H115.698L99.5201 65.4424Z" fill="#D4E3F4"/>
    <path d="M122.391 8.75195L107.419 69.7235L68.0781 70.1111L108.608 71.007L122.391 8.75195Z" fill="#699DEE"/>
    <path d="M114.535 4.66895L100.304 65.0547L60.9717 65.4423L100.976 66.433L114.535 4.66895Z" fill="#699DEE"/>
    <path d="M79.8018 22.6812H66.5703L70.7138 6.05566H83.9452L79.8018 22.6812Z" fill="#E9F3FE"/>
    <path d="M110.022 8.35566H86.3066L86.8924 6.05566H110.599L110.022 8.35566Z" fill="#AFCDFB"/>
    <path d="M108.944 13.0676H85.2373L85.8231 10.7676H109.529L108.944 13.0676Z" fill="#AFCDFB"/>
    <path d="M107.833 17.7797H84.1182L84.7039 15.4883H108.41L107.833 17.7797Z" fill="#AFCDFB"/>
    <path d="M106.515 22.5002H82.8086L83.3857 20.2002H107.101L106.515 22.5002Z" fill="#AFCDFB"/>
    <path d="M106.515 27.4104H63.1074L63.6932 25.1104H107.1L106.515 27.4104Z" fill="#AFCDFB"/>
    <path d="M105.36 32.3205H61.9531L62.5389 30.0205H105.937L105.36 32.3205Z" fill="#AFCDFB"/>
    <path d="M103.749 37.8508H60.3506L60.9277 35.5508H104.335L103.749 37.8508Z" fill="#AFCDFB"/>
    <path d="M102.294 42.6232H58.8867L59.4725 40.3232H102.88L102.294 42.6232Z" fill="#AFCDFB"/>
    <path d="M80.956 24.3352C80.956 24.3352 81.7313 23.982 82.0328 24.0854C82.3343 24.1973 83.1613 24.5505 83.1354 24.9037C83.1182 25.2569 81.8002 25.6532 80.9129 25.2224C80.0429 24.7917 80.956 24.3352 80.956 24.3352Z" fill="#E49963"/>
    <path d="M81.1889 25.3089C81.1716 25.3519 81.1544 25.395 81.1372 25.4295C80.8787 25.8516 76.5716 25.8688 76.0806 25.5156C75.8566 25.3605 75.7963 23.1812 75.7877 20.8209C75.7791 17.9093 75.8652 14.7134 75.8652 14.7134C75.8652 14.7134 77.545 15.4973 77.6312 16.4535C77.7173 17.4182 77.0023 23.1898 77.4933 23.5429C77.9844 23.8961 80.2499 23.9392 81.008 24.1632C81.008 24.1718 81.3267 24.8695 81.1889 25.3089Z" fill="#A8D2A0"/>
    <path d="M76.8388 8.0889C76.5459 7.77878 76.0635 7.75294 75.7534 7.73571C75.8395 7.6668 76.0032 7.65819 76.0032 7.65819C75.8137 7.6065 75.3658 7.73571 75.3658 7.73571C75.3658 7.73571 73.8669 6.70201 72.8418 8.71773C72.8418 8.71773 72.9882 8.57129 73.1864 8.41624C72.6006 9.57916 72.7987 11.4743 74.1081 11.9739C74.9695 12.3012 79.8538 11.2331 76.8388 8.0889Z" fill="#163560"/>
    <path d="M75.926 15.2044C75.9346 15.213 75.0129 15.5404 74.3927 15.282C73.8069 15.0408 73.514 14.1966 73.5226 14.1966C73.7897 14.1793 73.9103 13.8348 74.0998 12.3101L74.2118 12.3445L76.1242 12.982C76.1242 12.982 76.0036 13.5936 75.926 14.1707C75.8571 14.6704 75.8227 15.1355 75.926 15.2044Z" fill="#E49963"/>
    <path d="M76.1157 12.9903C76.1157 12.9903 75.9951 13.6019 75.9175 14.1791C74.8235 14.0068 74.3756 12.93 74.2119 12.3442L76.1157 12.9903Z" fill="#D68D5D"/>
    <path d="M74.0397 12.1114C74.0397 12.1114 73.5832 11.1294 73.5487 10.3369C73.5229 9.76839 74.0742 7.75267 76.0985 8.31259C76.0985 8.31259 76.6929 8.45042 77.2011 8.90697C77.606 9.26876 78.1745 10.001 77.2184 11.7066L76.9513 12.2837L74.0397 12.1114Z" fill="#163560"/>
    <path d="M76.4172 13.5849C76.4172 13.5849 73.8157 13.292 74.0224 11.6725C74.2292 10.0531 74.0311 8.9332 75.7022 9.0538C77.3734 9.1744 77.6146 9.82908 77.6749 10.389C77.7352 10.9489 77.0977 13.6193 76.4172 13.5849Z" fill="#E49963"/>
    <path d="M76.5806 17.2457C76.5634 17.0561 76.9683 16.97 77.0372 17.1423C77.175 17.4696 77.1578 17.8659 77.1922 18.1846C77.2784 19.0891 76.9252 20.2693 76.9252 20.2693L76.5806 17.2457Z" fill="#82B479"/>
    <path d="M77.7178 9.48424C77.3819 8.95016 77.0631 9.01046 76.8736 9.13967C76.4257 8.22657 74.4961 9.20859 74.4961 9.20859C74.1688 10.3457 73.2471 10.897 73.2471 10.897C73.2471 10.897 73.6778 11.2502 74.8062 11.1123C75.6935 11.0003 76.4688 9.86327 76.7616 9.38087C76.8995 9.53593 77.1837 9.89773 77.2354 10.2165C77.3129 10.6472 77.2613 11.5 77.5111 11.5C77.5197 11.5086 78.2174 10.2854 77.7178 9.48424Z" fill="#163560"/>
    <path d="M75.96 12.5336C75.96 12.5336 75.9858 12.7489 76.494 12.7834C76.494 12.7834 76.9247 12.8092 76.9419 12.5853C76.9505 12.5853 76.5543 12.3699 75.96 12.5336Z" fill="white"/>
    <path d="M81.1895 25.3089C81.1722 25.352 81.155 25.3951 81.1378 25.4295C80.8794 25.8516 76.5722 25.8689 76.0811 25.5157C75.8572 25.3606 75.7883 22.6557 76.3999 20.3213C76.5463 21.7168 76.2793 24.5164 77.0115 24.7404C77.8385 25.0074 80.1041 25.0074 81.1895 25.3089Z" fill="#82B479"/>
    <path d="M77.0717 20.3986C75.3661 25.3259 76.1414 26.2218 75.5298 26.6439C75.5298 26.6439 75.0215 26.7903 75.0129 26.7903C74.3841 27.2124 74.4444 26.6094 72.5579 27.1521C71.662 27.4106 70.4991 27.7551 69.5084 27.9274C69.138 27.9877 68.7848 28.0222 68.4833 28.0222C67.8976 28.0135 67.4841 27.8585 67.3979 27.4536C67.1395 26.2735 69.474 23.5255 69.2586 21.4237C69.2586 21.4064 69.2586 21.3892 69.25 21.372C69.2414 21.1911 69.2586 20.9843 69.3017 20.7604C69.5429 19.6319 70.4732 18.0641 71.4035 16.7461C72.4286 15.2903 73.4537 14.136 73.5226 14.1877C75.5298 15.7555 75.8657 14.7132 75.8657 14.7132C75.8657 14.7132 77.6575 18.7188 77.0717 20.3986Z" fill="#A8D2A0"/>
    <path d="M75.1937 26.7472C75.1937 26.7472 75.2023 26.7472 75.1937 26.7472C74.5648 27.1693 74.4442 26.618 72.5491 27.1607C71.6532 27.4191 70.4903 27.7637 69.4996 27.936C69 27.9618 68.6296 27.9877 68.4745 28.0307C67.8888 28.0221 67.4753 27.8671 67.3891 27.4622C67.1307 26.2821 69.4652 23.5341 69.2498 21.4322C69.2498 21.415 69.2498 21.3978 69.2412 21.3805C69.224 21.1738 69.2498 20.9671 69.2929 20.7689C69.5083 19.9161 70.2663 19.0547 71.1708 17.7798C71.5843 18.3483 75.2884 18.2277 73.7809 23.1637C73.3158 24.6712 75.1248 25.524 75.1937 26.7472Z" fill="#82B479"/>
    <path d="M74.9871 26.9801C74.9871 26.9801 75.8141 26.8939 76.1586 27.092C76.5032 27.2902 77.1837 27.7639 77.0976 27.9534C77.0028 28.1516 76.1242 28.143 75.7796 27.8931C75.4437 27.6433 75.1336 27.8673 74.7115 27.6606C74.2808 27.4538 74.9871 26.9801 74.9871 26.9801Z" fill="#E49963"/>
    <path d="M73.5224 14.1965C73.5224 14.1965 70.5677 13.8519 69.8527 15.2044C69.1377 16.5568 68.6553 21.5789 69.2325 23.1811C69.8096 24.7834 73.9358 27.3849 74.4182 27.5313C74.892 27.6778 75.2969 26.9628 75.2883 26.8766C75.2797 26.7905 71.1707 22.4748 71.2396 22.0957C71.2999 21.7167 73.5224 14.1965 73.5224 14.1965Z" fill="#A8D2A0"/>
    <path d="M172.197 113.165L171.146 117.61L169.561 117.601L169.51 113.165H172.197Z" fill="#E49963"/>
    <path d="M158.906 113.355L155.899 117.61L154.736 116.103L156.537 112.769L158.906 113.355Z" fill="#E49963"/>
    <path d="M166.71 54.7695C167.253 54.4594 167.907 54.425 168.364 54.4508C168.243 54.3302 168.011 54.2871 168.011 54.2871C168.295 54.2441 168.924 54.5283 168.924 54.5283C172.869 53.0122 173.489 58.8182 173.403 60.162C173.317 61.5144 174.73 61.9538 176.78 63.0133C180.699 65.0376 181.035 67.7597 181.035 67.7597C181.001 67.7769 180.975 67.7942 180.941 67.82C180.742 67.4927 180.346 66.8725 180.01 66.7777C180.019 66.8035 180.406 67.6305 180.553 68.0957C179.399 68.9743 177.236 70.9211 175.729 72.2994C175.738 72.0324 175.729 71.6447 175.626 71.4466L175.436 72.5664C174.626 73.3073 174.075 73.8327 174.075 73.8327C174.178 72.7387 169.139 66.9844 166.52 65.2616C165.883 64.3227 165.65 62.6601 165.633 62.5309C165.745 63.8489 165.969 64.5897 166.167 65.0032C163.971 62.9616 165.263 55.5879 166.71 54.7695Z" fill="#163560"/>
    <path d="M166.694 65.3561C166.676 65.3647 167.96 66.028 168.925 65.7609C169.829 65.5111 170.424 64.3396 170.406 64.3396C170.019 64.2621 169.915 63.7367 169.924 61.4712L169.752 61.5056L166.831 62.0828C166.831 62.0828 166.9 63.0045 166.9 63.8659C166.909 64.5894 166.857 65.2786 166.694 65.3561Z" fill="#E49963"/>
    <path d="M166.831 62.083C166.831 62.083 166.9 63.0047 166.9 63.8662C168.528 63.8231 169.398 62.3328 169.751 61.5059L166.831 62.083Z" fill="#D68D5D"/>
    <path d="M170.053 61.1867C170.053 61.1867 170.906 59.8343 171.112 58.68C171.259 57.853 170.837 54.795 167.77 55.2343C167.77 55.2343 166.874 55.3205 166.039 55.889C165.375 56.3369 164.411 57.3103 165.487 59.9807L165.763 60.8852L170.053 61.1867Z" fill="#163560"/>
    <path d="M155.211 114.94L156.753 114.983L158.424 115.035C158.424 115.035 162.292 110.728 164.454 103.836C164.506 103.673 164.557 103.518 164.618 103.345C165.806 99.8824 168.262 95.5409 169.562 91.6128C169.769 90.9839 169.95 90.3982 170.122 89.8382C170.174 89.6573 170.226 89.485 170.277 89.3128C171.233 85.9963 171.509 83.8169 171.768 81.4824L162.404 81.5599C162.404 81.5599 160.896 97.4618 155.211 114.94Z" fill="#2B478B"/>
    <path d="M163.713 76.1842C163.739 80.6378 163.058 82.5502 163.058 82.5502C163.058 82.5502 167.064 84.5832 171.828 83.0843C171.888 83.067 175.411 82.3607 175.411 82.3607C175.334 82.1798 174.36 79.0959 174.283 78.9322C173.275 76.77 173.137 75.7277 173.016 75.0644C172.792 73.8239 172.792 72.5404 172.904 71.3344C173.197 68.1299 174.059 65.4767 174.059 65.4767C172.758 65.1838 171.543 64.6583 170.191 64.1587C169.881 64.5464 168.933 64.9512 168.106 64.934C167.159 64.9168 166.849 64.5033 166.9 64.064C165.892 64.6239 165.083 65.158 165.083 65.158C164.221 66.6482 162.481 68.1041 162.352 70.3868C162.326 70.9381 163.713 76.055 163.713 76.1842Z" fill="#E7F1FD"/>
    <path d="M158.277 69.5683C159.655 67.966 163.213 64.4859 166.882 64.0552L163.712 70.2316C163.712 70.2316 163.531 71.2911 162.592 71.9027C160.292 73.4102 157.372 74.0821 157.372 74.0821C157.372 74.0821 155.391 73.2207 152.686 71.2308C151.833 70.6106 150.343 68.2331 150.343 68.2331L150.748 66.8893C150.748 66.8893 153.28 68.3106 154.185 68.7155C154.702 68.9481 155.89 69.508 156.726 69.8956C157.26 70.1541 157.898 70.0162 158.277 69.5683Z" fill="#699DEE"/>
    <path d="M166.289 62.901C166.289 62.901 170.148 62.9613 170.157 60.5579C170.157 58.1546 170.656 56.5437 168.193 56.3973C165.729 56.2509 165.247 57.1726 165.048 57.9737C164.85 58.7748 165.29 62.8235 166.289 62.901Z" fill="#E49963"/>
    <path d="M166.435 56.3371C166.435 56.3371 167.494 59.1626 169.114 59.5761C170.733 59.9896 171.439 59.5589 171.439 59.5589C171.439 59.5589 170.199 58.5682 169.941 56.8454C169.932 56.8454 167.227 54.9933 166.435 56.3371Z" fill="#163560"/>
    <path d="M166.693 56.57C166.693 56.57 165.901 57.1989 165.711 57.8105C165.522 58.4221 165.435 59.6798 165.065 59.6453C165.065 59.6453 164.272 57.7243 165.16 56.6389C166.116 55.4846 166.693 56.57 166.693 56.57Z" fill="#163560"/>
    <path d="M150.749 66.8892C150.749 66.8892 150.206 64.9252 148.044 65.2008C147.794 65.2784 147.07 65.5626 147.535 66.3379C147.88 66.9065 148.026 66.6136 148.561 67.3802C149.095 68.1469 149.68 68.3192 150.344 68.2331L150.749 66.8892Z" fill="#E49963"/>
    <path d="M171.199 117.36C171.199 117.36 171.069 118.239 171.397 119.187C171.397 119.187 171.655 120.367 170.492 120.384C169.329 120.41 169.045 120.298 169.174 119.574C169.303 118.851 169.553 117.602 169.553 117.602L171.199 117.36Z" fill="#E49963"/>
    <path d="M169.071 120.884C169.071 120.884 169.097 120.901 169.14 120.918H171.414C171.457 120.892 171.475 120.884 171.475 120.884C171.604 120.289 171.389 119.178 171.389 119.178C170.071 120.384 169.252 119.152 169.252 119.152C169.046 119.669 169.071 120.884 169.071 120.884Z" fill="#D86713"/>
    <path d="M151.938 119.686C151.938 119.686 154.074 117.309 154.737 116.103L156.331 116.921L152.773 120.263L151.938 120.151V119.686Z" fill="#E49963"/>
    <path d="M150.61 120.927H153.539C153.823 120.72 154.082 120.229 154.409 119.574C154.582 119.221 154.978 119.032 155.374 118.928V120.909H155.986L156.563 118.808C156.942 118.11 156.589 117.481 156.322 116.93C156.012 116.93 155.176 117.145 153.6 118.92C153.083 119.505 152.505 119.712 151.937 119.695C151.928 119.703 151.92 119.703 151.911 119.703C150.964 120.134 150.688 120.668 150.61 120.927Z" fill="#D86713"/>
    <path d="M166.909 64.0552C166.909 64.0552 164.678 69.5769 164.609 70.6882C164.54 71.808 164.342 88.9504 164.342 88.9504C164.342 88.9504 164.471 89.7429 162.963 89.4069C161.456 89.0796 161.06 88.7523 161.06 88.7523C161.06 88.7523 162.507 78.1739 162.111 74.4957C161.714 70.8174 165.134 64.8132 165.134 64.8132L166.909 64.0552Z" fill="#699DEE"/>
    <path d="M156.752 114.992L158.423 115.043C158.423 115.043 162.291 110.736 164.453 103.845C164.505 103.681 164.556 103.526 164.617 103.354C165.806 99.8908 168.261 95.5492 169.561 91.6211C169.768 90.9923 169.949 90.4065 170.121 89.8466C170.173 89.6657 170.225 89.4934 170.276 89.3211L168.898 88.2788C168.898 88.2788 164.763 94.9807 163.48 101.286C162.368 106.756 157.906 113.346 156.752 114.992Z" fill="#233862"/>
    <path d="M168.752 101.863C168.726 104.93 168.881 111.985 169.286 114.897H170.768C171.586 114.897 171.999 114.888 171.999 114.888C172.999 109.814 173.714 105.611 174.23 101.993C174.653 99.0208 175.032 96.4796 175.325 94.283C175.617 92.0777 175.824 90.2343 175.893 88.6665C175.902 88.4167 175.91 88.1841 175.919 87.9515C175.927 87.719 175.927 87.495 175.919 87.271L167.83 86.4785C167.942 91.8624 168.769 100.08 168.752 101.863Z" fill="#2B478B"/>
    <path d="M170.768 114.906C171.586 114.906 171.999 114.897 171.999 114.897C172.999 109.823 173.714 105.619 174.23 102.002C174.653 99.0296 175.032 96.4884 175.324 94.2918C175.617 92.0865 175.824 90.2431 175.893 88.6753L172.921 90.424C172.921 90.424 174.816 91.0959 174.093 96.1524C173.378 101.209 171.775 114.191 170.768 114.906Z" fill="#233862"/>
    <path d="M170.388 88.6237C170.388 88.6237 170.957 90.6825 172.929 90.4154C174.902 90.1484 177.702 88.9682 177.702 88.9682C177.702 88.9682 176.858 86.3064 175.815 82.809C174.549 78.5794 172.981 73.118 172.24 69.6723C172.034 68.7075 171.887 67.9064 171.835 67.3292L170.199 64.1592C170.199 64.1592 167.761 69.6292 167.632 71.0075C167.494 72.3944 170.388 88.6237 170.388 88.6237Z" fill="#699DEE"/>
    <path d="M170.476 73.9102C170.562 76.1413 171.087 80.4828 175.773 82.8001C175.782 82.8087 175.799 82.8087 175.808 82.8173C174.542 78.5877 172.974 73.1263 172.233 69.6807C171.372 70.9728 170.424 72.6784 170.476 73.9102Z" fill="#4A75CB"/>
    <path d="M144.115 55.6976L142.635 57.1777L148.513 63.0556L149.993 61.5755L144.115 55.6976Z" fill="#2B478B"/>
    <path d="M180.907 93.4474L180.39 93.9642C179.374 94.9807 177.728 94.9807 176.721 93.9642L147.958 65.2013C146.941 64.1848 146.941 62.5395 147.958 61.5317L148.475 61.0148C149.491 59.9983 151.136 59.9983 152.144 61.0148L180.907 89.7777C181.924 90.7856 181.924 92.4309 180.907 93.4474Z" fill="#C65447"/>
    <path d="M108.573 21.6304C98.9769 31.2267 98.9769 46.7926 108.573 56.3974C118.169 65.9937 133.735 65.9937 143.34 56.3974C152.936 46.8012 152.936 31.2353 143.34 21.6304C133.735 12.0255 118.169 12.0255 108.573 21.6304ZM141.419 54.4765C132.874 63.0218 119.022 63.0218 110.486 54.4765C101.94 45.9312 101.94 32.0795 110.486 23.5428C119.031 14.9974 132.883 14.9974 141.419 23.5428C149.965 32.0881 149.965 45.9398 141.419 54.4765Z" fill="#C65447"/>
    <path d="M172.353 70.8093L170.191 64.1592C170.199 64.1592 172.913 64.9689 174.283 65.6581C174.283 65.6581 175.135 66.7607 175.669 69.3019C175.669 69.3019 176.229 75.4093 174.98 77.6404C174.98 77.6404 171.035 78.4329 164.729 76.2621V74.8149C164.729 74.8149 171.629 75.1767 173.042 75.3404L172.353 70.8093Z" fill="#E49963"/>
    <path d="M170.199 64.1675C170.199 64.1675 174.196 64.4517 175.161 66.5967C176.126 68.7416 176.427 75.8828 175.204 77.9847C175.204 77.9847 173.516 78.4671 170.526 77.9072C170.492 77.8986 170.449 77.8899 170.414 77.8899C170.414 77.8899 169.458 75.5555 170.32 75.0989C170.32 75.0989 172.835 75.2282 172.577 74.4012C172.318 73.557 170.199 64.1675 170.199 64.1675Z" fill="#699DEE"/>
    <path d="M165.444 75.2112C165.444 75.2112 164.893 74.5479 164.781 73.8673C164.66 73.1868 164.298 72.6872 163.351 72.558C162.403 72.4374 161.998 72.4202 161.998 72.6872C161.998 72.9542 162.773 74.8235 164.134 75.9347C165.487 77.0546 165.444 75.2112 165.444 75.2112Z" fill="#E49963"/>
    <path opacity="0.4" d="M135.64 19.2441L106.343 48.5411C106.817 49.5059 107.368 50.4362 107.979 51.3149L138.414 20.8808C137.535 20.2692 136.613 19.7179 135.64 19.2441Z" fill="white"/>
    <path opacity="0.4" d="M133.633 18.3739C131.247 17.478 128.662 16.9956 125.966 16.9956C113.889 16.9956 104.095 26.79 104.095 38.8671C104.095 41.5634 104.586 44.1476 105.473 46.5338L133.633 18.3739Z" fill="white"/>
    <path opacity="0.4" d="M116.275 58.4819C119.196 59.9291 122.486 60.7388 125.966 60.7388C138.044 60.7388 147.838 50.9444 147.838 38.8673C147.838 35.3871 147.028 32.0965 145.581 29.1763L116.275 58.4819Z" fill="white"/>
    <path d="M3.98817 121.323H226.011C226.123 121.323 226.21 121.237 226.21 121.125C226.21 121.013 226.123 120.927 226.011 120.927H3.98817C3.87618 120.927 3.79004 121.013 3.79004 121.125C3.79004 121.228 3.87618 121.323 3.98817 121.323Z" fill="#B0BFE2"/>
  </g>
  <defs>
    <clipPath id="clip0">
      <rect width="230" height="121.375" fill="white"/>
    </clipPath>
  </defs>
</svg>
