<svg width="24" height="24" viewBox="0 0 20 20" fill="none" xmlns="http://www.w3.org/2000/svg">
  <path d="M13.3333 11.6666H6.66667C6.44565 11.6666 6.23369 11.7544 6.07741 11.9107C5.92113 12.067 5.83333 12.2789 5.83333 12.5C5.83333 12.721 5.92113 12.9329 6.07741 13.0892C6.23369 13.2455 6.44565 13.3333 6.66667 13.3333H13.3333C13.5543 13.3333 13.7663 13.2455 13.9226 13.0892C14.0789 12.9329 14.1667 12.721 14.1667 12.5C14.1667 12.2789 14.0789 12.067 13.9226 11.9107C13.7663 11.7544 13.5543 11.6666 13.3333 11.6666ZM13.3333 8.33329H8.33333C8.11232 8.33329 7.90036 8.42109 7.74408 8.57737C7.5878 8.73365 7.5 8.94561 7.5 9.16663C7.5 9.38764 7.5878 9.5996 7.74408 9.75588C7.90036 9.91216 8.11232 9.99996 8.33333 9.99996H13.3333C13.5543 9.99996 13.7663 9.91216 13.9226 9.75588C14.0789 9.5996 14.1667 9.38764 14.1667 9.16663C14.1667 8.94561 14.0789 8.73365 13.9226 8.57737C13.7663 8.42109 13.5543 8.33329 13.3333 8.33329ZM16.6667 3.33329H14.1667V2.49996C14.1667 2.27895 14.0789 2.06698 13.9226 1.9107C13.7663 1.75442 13.5543 1.66663 13.3333 1.66663C13.1123 1.66663 12.9004 1.75442 12.7441 1.9107C12.5878 2.06698 12.5 2.27895 12.5 2.49996V3.33329H10.8333V2.49996C10.8333 2.27895 10.7455 2.06698 10.5893 1.9107C10.433 1.75442 10.221 1.66663 10 1.66663C9.77899 1.66663 9.56702 1.75442 9.41074 1.9107C9.25446 2.06698 9.16667 2.27895 9.16667 2.49996V3.33329H7.5V2.49996C7.5 2.27895 7.4122 2.06698 7.25592 1.9107C7.09964 1.75442 6.88768 1.66663 6.66667 1.66663C6.44565 1.66663 6.23369 1.75442 6.07741 1.9107C5.92113 2.06698 5.83333 2.27895 5.83333 2.49996V3.33329H3.33333C3.11232 3.33329 2.90036 3.42109 2.74408 3.57737C2.5878 3.73365 2.5 3.94561 2.5 4.16663V15.8333C2.5 16.4963 2.76339 17.1322 3.23223 17.6011C3.70107 18.0699 4.33696 18.3333 5 18.3333H15C15.663 18.3333 16.2989 18.0699 16.7678 17.6011C17.2366 17.1322 17.5 16.4963 17.5 15.8333V4.16663C17.5 3.94561 17.4122 3.73365 17.2559 3.57737C17.0996 3.42109 16.8877 3.33329 16.6667 3.33329ZM15.8333 15.8333C15.8333 16.0543 15.7455 16.2663 15.5893 16.4225C15.433 16.5788 15.221 16.6666 15 16.6666H5C4.77899 16.6666 4.56702 16.5788 4.41074 16.4225C4.25446 16.2663 4.16667 16.0543 4.16667 15.8333V4.99996H5.83333V5.83329C5.83333 6.05431 5.92113 6.26627 6.07741 6.42255C6.23369 6.57883 6.44565 6.66663 6.66667 6.66663C6.88768 6.66663 7.09964 6.57883 7.25592 6.42255C7.4122 6.26627 7.5 6.05431 7.5 5.83329V4.99996H9.16667V5.83329C9.16667 6.05431 9.25446 6.26627 9.41074 6.42255C9.56702 6.57883 9.77899 6.66663 10 6.66663C10.221 6.66663 10.433 6.57883 10.5893 6.42255C10.7455 6.26627 10.8333 6.05431 10.8333 5.83329V4.99996H12.5V5.83329C12.5 6.05431 12.5878 6.26627 12.7441 6.42255C12.9004 6.57883 13.1123 6.66663 13.3333 6.66663C13.5543 6.66663 13.7663 6.57883 13.9226 6.42255C14.0789 6.26627 14.1667 6.05431 14.1667 5.83329V4.99996H15.8333V15.8333Z" fill="#92929D"/>
</svg>
