<svg width="80" height="80" viewBox="0 0 80 80" fill="none" xmlns="http://www.w3.org/2000/svg">
  <mask id="mask0" mask-type="alpha" maskUnits="userSpaceOnUse" x="0" y="0" width="80" height="80">
    <g opacity="0.2">
      <path d="M40 80C17.9435 80 0 62.0565 0 40C0 17.9434 17.9435 0 40 0C62.0565 0 80 17.9434 80 40C80 62.0565 62.0565 80 40 80ZM40 0.505384C18.2187 0.505384 0.500375 18.2237 0.500375 40.005C0.500375 61.7863 18.2187 79.5046 40 79.5046C61.7813 79.5046 79.4996 61.7863 79.4996 40.005C79.4996 18.2237 61.7813 0.505384 40 0.505384Z" fill="white"/>
      <path d="M40.0004 76.1371C20.0754 76.1371 3.86328 59.9249 3.86328 39.9999C3.86328 20.075 20.0754 3.86285 40.0004 3.86285C59.9253 3.86285 76.1375 20.075 76.1375 39.9999C76.1375 59.9299 59.9303 76.1371 40.0004 76.1371ZM40.0004 4.86861C20.6258 4.86861 4.86403 20.6304 4.86403 40.005C4.86403 59.3795 20.6258 75.1413 40.0004 75.1413C59.3749 75.1413 75.1367 59.3795 75.1367 40.005C75.1367 20.6304 59.3749 4.86861 40.0004 4.86861Z" fill="white"/>
      <path d="M40 66.1046C25.6092 66.1046 13.9004 54.3958 13.9004 40.005C13.9004 25.6142 25.6092 13.9055 40 13.9055C54.3907 13.9055 66.0995 25.6142 66.0995 40.005C66.1045 54.3958 54.3957 66.1046 40 66.1046ZM40 14.9012C26.1596 14.9012 14.9011 26.1596 14.9011 40C14.9011 53.8404 26.1596 65.0989 40 65.0989C53.8403 65.0989 65.0988 53.8404 65.0988 40C65.1038 26.1646 53.8403 14.9012 40 14.9012Z" fill="white"/>
      <path d="M40 61.6162C28.0811 61.6162 18.3838 51.9189 18.3838 40C18.3838 28.081 28.0811 18.3838 40 18.3838C51.9189 18.3838 61.6162 28.081 61.6162 40C61.6162 51.9239 51.924 61.6162 40 61.6162ZM40 18.8891C28.3563 18.8891 18.8842 28.3613 18.8842 40.005C18.8842 51.6487 28.3563 61.1208 40 61.1208C51.6437 61.1208 61.1158 51.6487 61.1158 40.005C61.1158 28.3613 51.6437 18.8891 40 18.8891Z" fill="white"/>
      <path d="M39.9998 53.45C32.5842 53.45 26.5547 47.4205 26.5547 40.005C26.5547 32.5894 32.5842 26.5599 39.9998 26.5599C47.4153 26.5599 53.4448 32.5894 53.4448 40.005C53.4499 47.4155 47.4153 53.45 39.9998 53.45ZM39.9998 27.5556C33.1396 27.5556 27.5554 33.1398 27.5554 39.9999C27.5554 46.8601 33.1396 52.4443 39.9998 52.4443C46.8599 52.4443 52.4441 46.8601 52.4441 39.9999C52.4491 33.1398 46.8649 27.5556 39.9998 27.5556Z" fill="white"/>
      <path d="M40.0003 46.685C36.3175 46.685 33.3203 43.6877 33.3203 40.005C33.3203 36.3222 36.3175 33.3199 40.0003 33.3199C43.6831 33.3199 46.6853 36.3172 46.6853 40.005C46.6853 43.6877 43.6881 46.685 40.0003 46.685ZM40.0003 33.8203C36.5928 33.8203 33.8207 36.5924 33.8207 40.005C33.8207 43.4175 36.5928 46.1846 40.0003 46.1846C43.4079 46.1846 46.185 43.4125 46.185 40.005C46.185 36.5974 43.4129 33.8203 40.0003 33.8203Z" fill="white"/>
    </g>
  </mask>
  <g mask="url(#mask0)">
    <rect x="-233" y="-63" width="280" height="110" fill="white"/>
  </g>
</svg>
