<svg width="24" height="24" viewBox="0 0 20 20" fill="none" xmlns="http://www.w3.org/2000/svg">
  <path d="M17.6413 1.71669C17.044 1.6138 16.4391 1.56084 15.833 1.55835C13.765 1.55666 11.7401 2.14966 9.99966 3.26669C8.25479 2.16433 6.23021 1.58588 4.16633 1.60002C3.5602 1.6025 2.95533 1.65546 2.358 1.75835C2.16234 1.79209 1.98515 1.89457 1.85834 2.04735C1.73154 2.20013 1.66344 2.39316 1.66633 2.59169V12.5917C1.66455 12.7141 1.68977 12.8355 1.74021 12.9471C1.79064 13.0586 1.86505 13.1577 1.95814 13.2373C2.05123 13.3169 2.16071 13.3749 2.27879 13.4074C2.39688 13.4398 2.52066 13.4459 2.64133 13.425C3.83551 13.2183 5.059 13.2526 6.23972 13.5259C7.42044 13.7993 8.53452 14.3061 9.51633 15.0167L9.61633 15.075H9.708C9.80042 15.1135 9.89954 15.1334 9.99966 15.1334C10.0998 15.1334 10.1989 15.1135 10.2913 15.075H10.383L10.483 15.0167C11.458 14.2903 12.5688 13.767 13.7498 13.4778C14.9307 13.1887 16.1577 13.1395 17.358 13.3334C17.4787 13.3542 17.6025 13.3482 17.7205 13.3157C17.8386 13.2833 17.9481 13.2252 18.0412 13.1456C18.1343 13.0661 18.2087 12.967 18.2591 12.8554C18.3096 12.7438 18.3348 12.6225 18.333 12.5V2.50002C18.3243 2.31015 18.251 2.12895 18.1252 1.98647C17.9994 1.84399 17.8287 1.7488 17.6413 1.71669ZM9.16633 12.7917C7.62457 11.9806 5.90843 11.5573 4.16633 11.5584C3.89133 11.5584 3.61633 11.5584 3.333 11.5584V3.22502C3.61054 3.20902 3.88878 3.20902 4.16633 3.22502C5.94415 3.22306 7.68318 3.74476 9.16633 4.72502V12.7917ZM16.6663 11.5917C16.383 11.5917 16.108 11.5917 15.833 11.5917C14.0909 11.5906 12.3748 12.0139 10.833 12.825V4.72502C12.3162 3.74476 14.0552 3.22306 15.833 3.22502C16.1105 3.20902 16.3888 3.20902 16.6663 3.22502V11.5917ZM17.6413 15.05C17.044 14.9471 16.4391 14.8942 15.833 14.8917C13.765 14.89 11.7401 15.483 9.99966 16.6C8.25926 15.483 6.23436 14.89 4.16633 14.8917C3.5602 14.8942 2.95533 14.9471 2.358 15.05C2.24952 15.0672 2.14552 15.1057 2.05197 15.1633C1.95842 15.2208 1.87716 15.2963 1.81289 15.3854C1.74861 15.4744 1.70257 15.5753 1.67742 15.6822C1.65227 15.7891 1.6485 15.9 1.66633 16.0084C1.70868 16.2248 1.83507 16.4156 2.01782 16.539C2.20057 16.6623 2.42478 16.7083 2.64133 16.6667C3.83551 16.4599 5.059 16.4942 6.23972 16.7676C7.42044 17.0409 8.53452 17.5478 9.51633 18.2584C9.65747 18.3588 9.82641 18.4128 9.99966 18.4128C10.1729 18.4128 10.3419 18.3588 10.483 18.2584C11.4648 17.5478 12.5789 17.0409 13.7596 16.7676C14.9403 16.4942 16.1638 16.4599 17.358 16.6667C17.5745 16.7083 17.7988 16.6623 17.9815 16.539C18.1643 16.4156 18.2906 16.2248 18.333 16.0084C18.3508 15.9 18.3471 15.7891 18.3219 15.6822C18.2968 15.5753 18.2507 15.4744 18.1864 15.3854C18.1222 15.2963 18.0409 15.2208 17.9474 15.1633C17.8538 15.1057 17.7498 15.0672 17.6413 15.05Z" fill="#92929D"/>
</svg>
